<?xml version="1.0" standalone="yes"?>
<svg width="275" height="238">
<path style="fill:#000000; stroke:none;" d="M0 0L0 238L275 238L275 0L0 0z"/>
<path style="fill:#ed3237; stroke:none;" d="M184 25C176.279 26.5766 176.299 33.4077 184 35C184.11 37.442 184.428 39.6228 185 42C176.721 43.7203 175.144 61.0036 175 68C167.495 68.0886 159.468 74.9972 169 80C164.186 84.7329 162.217 90.0402 169 94C160.918 99.5066 163.548 107.025 173 108C163.336 111.359 156.613 116.239 155 127C152.431 125.074 149.834 123.506 147 122C162.309 115.266 163.274 94.3862 147 88C150.641 85.7594 154.47 83.7213 156.772 79.9599C163.266 69.3439 156.864 57.9064 147 53C164.791 46.0181 161.689 16.952 141 18.108C121.001 19.2255 118.613 47.1281 137 53C132.509 55.0207 128.668 57.5042 126.279 62C121.186 71.5803 126.018 84.784 137 87C133.234 89.232 129.405 91.1799 127.005 95.0154C120.632 105.203 125.584 117.415 136 122C132 124.467 128.372 126.664 126.189 131.015C122.166 139.032 124.492 149.165 132.015 154.297C139.62 159.484 151.978 157.416 156 149L158 149C164.293 161.029 176.27 160 188 160C187.35 158.7 187.853 159 186 159C188.796 157.169 189.803 153.702 193 152.5C199.563 150.033 210.016 152 217 152C208.186 154.605 198.459 150.929 190 155L190 157C198.847 159.615 209.797 158 219 158L219 154C220.351 156.288 220.292 157.467 223 158L221 159C223.876 160.207 226.88 160.033 230 159.996C246.399 159.8 253.071 146.59 252.999 132C252.948 121.557 247.464 110.275 236 109C238.454 108.019 241.445 107.3 243.343 105.348C247.399 101.177 244.5 96.64 240 95C245.359 89.2039 245.359 85.7961 240 80C249.414 75.0561 241.406 68.0875 234 68C233.701 61.0407 232.226 43.7093 224 42C224.572 39.6229 224.89 37.442 225 35C232.461 33.4572 232.792 26.2322 225 25C224.947 19.1305 221.172 11.068 216 19C208.404 13.6604 200.664 14.0142 193 19C188.362 11.0963 184.066 19.4517 184 25z"/>
<path style="fill:#ab0101; stroke:none;" d="M218 15L219 16L218 15z"/>
<path style="fill:#000000; stroke:none;" d="M201 19L201 24C203.044 22.3762 203.896 21.3572 205 19L201 19z"/>
<path style="fill:#ed3237; stroke:none;" d="M103 21.6528C84.5547 27.4444 94.5507 56.409 112.999 50.1458C131.167 43.978 121.478 15.8508 103 21.6528z"/>
<path style="fill:#000000; stroke:none;" d="M207 21L203 26L208 26C207.912 24.0359 207.779 22.769 207 21z"/>
<path style="fill:#ed3237; stroke:none;" d="M75.0039 24.6528C60.8812 29.1176 67.6614 51.4852 81.9992 47.4267C97.1303 43.1436 90.036 19.9004 75.0039 24.6528z"/>
<path style="fill:#000000; stroke:none;" d="M188 26L188 31C190.136 29.4511 191.451 28.1357 193 26L188 26M217 26C218.549 28.1357 219.864 29.4511 222 31L222 26L217 26z"/>
<path style="fill:#ed3237; stroke:none;" d="M52.1049 27.8588C42.3039 32.2094 48.8841 48.0918 58.9846 44.2539C70.216 39.9861 62.7839 23.1185 52.1049 27.8588z"/>
<path style="fill:#c00101; stroke:none;" d="M59 27L60 28L59 27z"/>
<path style="fill:#000000; stroke:none;" d="M215 28L215 33L220 33C218.451 30.8643 217.136 29.5489 215 28M193 29L190 33L194 33C193.826 31.3149 193.683 30.506 193 29z"/>
<path style="fill:#ed3237; stroke:none;" d="M35.2793 31.0278C28.4389 35.3513 36.0036 45.3221 42.5664 40.821C48.8663 36.5001 41.85 26.8747 35.2793 31.0278M24.3179 33.0864C20.5598 35.2561 23.924 41.0833 27.6821 38.9136C31.4401 36.7439 28.076 30.9167 24.3179 33.0864z"/>
<path style="fill:#800101; stroke:none;" d="M28 32L29 33L28 32z"/>
<path style="fill:#000000; stroke:none;" d="M203 32C204.549 34.1357 205.864 35.4511 208 37L208 32L203 32M201 34L201 39L206 39C204.451 36.8643 203.136 35.5489 201 34M193 38C194.402 40.2743 195.515 40.9873 198 42C196.412 40.3733 194.922 39.2261 193 38M215 38C209.793 42.171 205.474 42.7646 199 42C204.879 45.5208 210.426 42.8478 216 40C217.831 43.1294 219.473 43.6607 223 43C219.542 41.9 217.554 40.6001 215 38z"/>
<path style="fill:#c00101; stroke:none;" d="M89 41L90 42L89 41z"/>
<path style="fill:#000000; stroke:none;" d="M192 41C189.683 41.9595 188.495 42.1834 186 42C188.667 43.8423 190.085 43.3362 193 42L192 41z"/>
<path style="fill:#c00101; stroke:none;" d="M202 42L203 43L202 42z"/>
<path style="fill:#800101; stroke:none;" d="M201 43L202 44L201 43M99 48L100 49L99 48z"/>
<path style="fill:#ed3237; stroke:none;" d="M105 55.5363C93.2518 58.1951 88.5268 74.2762 98.3287 82.1458C101.975 85.073 107.534 85.5703 112 84.6559C130.333 80.9023 122.919 51.481 105 55.5363z"/>
<path style="fill:#c00101; stroke:none;" d="M129 57L130 58L129 57z"/>
<path style="fill:#ed3237; stroke:none;" d="M74.0039 59.7423C59.553 65.3398 69.7096 86.8844 83.9846 81.2577C98.0308 75.7213 88.2428 54.2268 74.0039 59.7423z"/>
<path style="fill:#c00101; stroke:none;" d="M96 60L97 61L96 60M119 60L120 61L119 60z"/>
<path style="fill:#ed3237; stroke:none;" d="M54.0039 61.6127C42.3636 64.4009 47.1509 81.8662 58.9815 78.5656C69.3664 75.6683 64.4876 59.1014 54.0039 61.6127M36.1088 65.0432C28.8863 68.8627 34.9235 79.8484 41.7716 75.8164C48.216 72.022 42.9823 61.4082 36.1088 65.0432M25.1296 66.8904C20.8018 68.1195 22.4562 74.5548 26.8958 73.6234C31.4166 72.6751 29.4996 65.6494 25.1296 66.8904z"/>
<path style="fill:#800101; stroke:none;" d="M33 66L34 67L33 66M47 73L48 74L47 73z"/>
<path style="fill:#ab0101; stroke:none;" d="M129 83L130 84L129 83z"/>
<path style="fill:#800101; stroke:none;" d="M102 84L103 85L102 84M113 84L114 85L113 84z"/>
<path style="fill:#ed3237; stroke:none;" d="M103 90.6528C84.5827 96.4356 94.3928 125.6 113 119.297C131.18 113.139 121.605 84.8109 103 90.6528z"/>
<path style="fill:#c00101; stroke:none;" d="M243 91L244 92L243 91z"/>
<path style="fill:#ed3237; stroke:none;" d="M75.0039 93.7037C60.3332 98.6612 68.441 121.67 82.9961 116.106C97.212 110.671 89.1377 88.9276 75.0039 93.7037z"/>
<path style="fill:#000000; stroke:none;" d="M202 95C200.138 96.9454 198.532 98.7939 197 101L203 101C202.953 98.7472 202.874 97.0521 202 95M206 95L206 101L212 101C210.205 98.4925 208.508 96.7952 206 95z"/>
<path style="fill:#ed3237; stroke:none;" d="M52.1049 96.7423C42.2665 100.895 48.4945 117.324 58.9846 113.257C70.1488 108.929 62.9278 92.1739 52.1049 96.7423z"/>
<path style="fill:#ab0101; stroke:none;" d="M61 97L62 98L61 97z"/>
<path style="fill:#ed3237; stroke:none;" d="M35.2292 100.029C28.2581 104.273 36.0212 114.31 42.5664 109.821C48.9129 105.468 41.7208 96.0759 35.2292 100.029z"/>
<path style="fill:#c00101; stroke:none;" d="M89 99L90 100L89 99z"/>
<path style="fill:#ed3237; stroke:none;" d="M24.3179 102.072C20.6176 104.335 23.8936 110.051 27.686 107.914C31.7348 105.633 28.3791 99.5875 24.3179 102.072z"/>
<path style="fill:#000000; stroke:none;" d="M179 102C177.451 104.136 176.136 105.451 174 107C177.084 107.07 179.07 105.084 179 102M229 102L230 103L229 102M197 103C198.739 105.648 200.282 107.378 203 109L203 103L197 103M206 103L206 109C208.929 107.407 210.407 105.929 212 103L206 103M230 104C231.624 106.044 232.643 106.896 235 108C233.412 106.373 231.922 105.226 230 104M192 105C189.794 107.252 187.807 109.424 186 112L193 112C192.981 109.457 192.985 107.332 192 105M195 106L195 112L201 112C199.205 109.492 197.508 107.795 195 106M213 106C211.138 107.945 209.532 109.794 208 112L214 112C213.953 109.747 213.874 108.052 213 106M217 106L217 112L223 112C221.205 109.492 219.508 107.795 217 106z"/>
<path style="fill:#c00101; stroke:none;" d="M59 113L60 114L59 113z"/>
<path style="fill:#000000; stroke:none;" d="M186 114C188.007 116.965 189.919 119.167 193 121L193 114L186 114M195 114L195 121C197.663 118.95 199.312 116.909 201 114L195 114M208 114C209.758 116.587 211.291 118.441 214 120L214 114L208 114M217 114L217 120C219.948 118.503 221.313 116.846 223 114L217 114z"/>
<path style="fill:#800101; stroke:none;" d="M75 116L76 117L75 116z"/>
<path style="fill:#ab0101; stroke:none;" d="M221 116L222 117L221 116z"/>
<path style="fill:#c00101; stroke:none;" d="M188 117L189 118L188 117z"/>
<path style="fill:#000000; stroke:none;" d="M202 117C200.138 118.945 198.532 120.794 197 123L203 123C202.953 120.747 202.874 119.052 202 117M206 117L206 123L212 123C210.205 120.492 208.508 118.795 206 117z"/>
<path style="fill:#800101; stroke:none;" d="M189 118L190 119L189 118z"/>
<path style="fill:#ab0101; stroke:none;" d="M213 120L214 121L213 120z"/>
<path style="fill:#ed3237; stroke:none;" d="M106 124.507C86.775 127.268 90.8765 157.33 110 154.492C129.059 151.664 125.034 121.773 106 124.507z"/>
<path style="fill:#000000; stroke:none;" d="M198 126C199.455 128.486 200.782 130.173 203 132L203 126L198 126M206 126L206 132C208.447 130.164 209.7 128.763 211 126L206 126z"/>
<path style="fill:#ed3237; stroke:none;" d="M78 127.642C62.5321 128.953 64.3247 152.051 80 150.902C95.2567 149.783 93.0376 126.367 78 127.642M55.0008 130.718C43.5433 132.061 45.6769 149.776 56.9961 148.292C68.0979 146.837 66.3562 129.388 55.0008 130.718z"/>
<path style="fill:#800101; stroke:none;" d="M94 132L95 133L94 132M121 132L122 133L121 132z"/>
<path style="fill:#ed3237; stroke:none;" d="M36.1088 134.032C28.9209 137.941 34.9962 148.692 41.7716 144.806C48.1435 141.151 42.9666 130.303 36.1088 134.032M25.1289 135.971C20.6779 137.081 22.3582 144.155 26.8711 143.029C31.3221 141.919 29.6418 134.845 25.1289 135.971z"/>
<path style="fill:#ab0101; stroke:none;" d="M64 142L65 143L64 142z"/>
<path style="fill:#800101; stroke:none;" d="M48 144L49 145L48 144z"/>
<path style="fill:#ab0101; stroke:none;" d="M251 145L252 146L251 145z"/>
<path style="fill:#000000; stroke:none;" d="M186 158C180.029 143.507 202.644 146.999 211 147C214.734 147 219.605 146.298 222.767 148.742C226.304 151.476 224.702 154.764 223 158C228.337 154.879 226.999 148.132 220.985 146.434C217.283 145.388 212.811 146 209 146C202.788 146 195.018 144.757 189.005 146.434C183 148.108 181.861 153.942 186 158z"/>
<path style="fill:#ab0101; stroke:none;" d="M156 149L157 150L156 149z"/>
<path style="fill:#c00101; stroke:none;" d="M249 149L250 150L249 149z"/>
<path style="fill:#800101; stroke:none;" d="M97 150L98 151L97 150z"/>
<path style="fill:#000000; stroke:none;" d="M189 157C196.78 150.945 207.604 153 217 153C211.622 150.743 197.598 150.394 192.148 152.738C190.044 153.642 189.63 155.007 189 157M217.667 153.333C217.222 153.778 218.278 153.722 218.333 153.667C218.778 153.222 217.722 153.278 217.667 153.333z"/>
<path style="fill:#c00101; stroke:none;" d="M146 156L147 157L146 156z"/>
<path style="fill:#800101; stroke:none;" d="M189 157L190 158L189 157z"/>
<path style="fill:#00a859; stroke:none;" d="M59 166L59 174C52.7993 174.001 47.9856 173.805 45 180C40.31 175.259 37.6177 174.005 31 174C32.4411 177.721 37.5348 182.022 37.3202 186C37.1127 189.847 32.5856 193.538 31 197C28.3021 187.873 30 176.497 30 167L22 167L22 198C26.7108 198 32.3825 198.863 36.9606 197.682C39.4896 197.03 41.4675 194.046 44.0748 194.046C46.4925 194.046 48.1723 196.545 50.2855 197.398C52.6326 198.346 55.5233 197.998 58 198C56.3837 194.183 50.4923 189.457 50.483 185.424C50.4771 182.871 53.6394 179.992 55 178C56.5944 179.297 57.0182 179.535 59 180L59 198L67 198C67 192.617 65.0048 183.238 70 180C69.5732 182.301 69.0113 184.644 69.1443 187.002C69.967 201.583 87.1527 197.946 97 198L97 174C94.125 174.032 91.9255 173.792 90 176C81.9952 172.622 76.1994 174.14 70 180L70 174L67 174L67 166L59 166M159 166L159 198L167 198L167 166L159 166M100 174L100 206L108 206L108 197C110.972 197.998 113.829 198.684 117 198.291C119.087 198.032 121.195 197.444 122.956 196.262C135.966 187.525 121.869 167.208 109 176C106.092 173.963 103.502 174.012 100 174M157 198L157 174C153.906 174.01 151.104 173.591 149 176C144.663 173.913 139.529 173.093 135.04 175.457C128.246 179.035 126.803 189.336 132.228 194.772C138.115 200.67 149.444 197.984 157 198M169 174C169 179.635 167.502 187.857 170.179 192.981C173.826 199.959 186.64 200.567 190.91 193.891C194.391 188.451 193 180.15 193 174L185 174C185 178.056 186.873 188.548 182.687 190.914C180.122 192.363 177.941 190.188 177.032 187.941C175.325 183.722 176 178.453 176 174L169 174M222 193C220.051 191.837 218.367 190.665 215.995 190.728C212.568 190.82 209.476 192.87 206.113 190.971C200.769 187.955 203.821 181.437 209.004 180.542C214.136 179.655 216.773 182.773 222 180L222 178C218.811 175.997 215.824 174.415 212 174.094C209.401 173.876 206.509 173.866 204 174.653C195.381 177.356 191.424 188.005 198.228 194.772C204.395 200.906 216.917 199.413 222 193M251 198L251 174C248.125 174.032 245.926 173.792 244 176C239.833 173.995 234.384 172.925 230.015 175.179C222.533 179.04 221.059 189.688 227.34 195.277C233.22 200.509 243.732 197.96 251 198z"/>
<path style="fill:#000000; stroke:none;" d="M81.0586 180.762C73.5349 183.555 78.7314 194.215 85.8912 191.392C93.1184 188.542 87.8024 178.258 81.0586 180.762M111.11 181.043C103.396 185.137 110.7 195.259 117.721 190.821C124.023 186.837 117.124 177.851 111.11 181.043M140.109 181.043C132.796 184.911 138.695 194.505 145.772 191.257C152.535 188.153 146.749 177.532 140.109 181.043M235.109 180.758C227.685 183.694 232.714 194.165 239.941 191.392C247.34 188.553 242.18 177.961 235.109 180.758z"/>
<path style="fill:#fefefe; stroke:none;" d="M22 228C24.5941 227.614 27.4372 225.622 30 225.843C32.3629 226.047 34.5833 227.626 37 228C36.045 222.454 33.297 217.473 32 212C25.1938 213.125 23.6007 222.136 22 228M71 212C69.1123 218.301 60.4124 216 55 216C54.9556 219.827 54.7871 222.271 52 225L52 216L44 216C43.2507 218.254 42.6559 219.314 41 221C40.272 217.649 39.403 216.588 36 216C36.873 221.824 39.2754 226.003 38 232C43.8824 230.989 46.0477 224.342 47 219C47.6923 221.271 47.7506 224.543 49.1782 226.482C52.1671 230.542 56.8333 227.598 58 224L59 228L63 228C63.1116 224.476 63.46 222.484 66 220L66 228L70 228L70 220C70.8102 222.729 70.9792 225.15 71 228C73.7386 227.789 74.422 227.697 75 225C78.7632 228.751 81.9706 228.355 87 228L87 216C82.9312 216.21 79.6625 216.05 76 218L75 212L71 212M106 212L106 218C100.652 215.175 93.9633 216.003 88 216L88 228L92 228L92 220L95 220L95 228L99 228L99 220L102 220L102 228C105.502 227.988 108.092 228.037 111 226C114.127 228.683 118.189 229.458 121 226C122.825 227.336 123.753 227.69 126 228C126.117 225.27 126.499 222.686 127 220L129 220C129.501 222.686 129.883 225.27 130 228L133 228L133 220C133.81 222.729 133.979 225.15 134 228L138 228L138 223C139.495 225.421 140.936 227.764 144.015 228.238C148.645 228.951 151.927 224.366 150.242 220.109C147.821 213.989 140.057 218.361 138 212L134 212L133 217C129.519 215.742 122.948 214.574 122 219C117.815 215.376 114.358 215.868 110 219L110 212L106 212M156 218C158.512 217.666 160.62 216.854 163 216C161.008 220.299 157.543 223.459 156 228C159.706 228 164.421 228.951 167 226C175.618 232.897 177.995 223.097 178 216L181 216L181 228L185 228L185 212C181.436 212.272 179.879 212.932 178 216C174.954 212.619 170.95 210.455 168 215C162.558 211.642 158.604 211.579 156 218M193 212C191.854 213.964 190.718 215.921 189.795 218.005C189.241 219.255 188.58 220.615 188.434 221.995C187.444 231.417 201.083 228.896 196.866 220.424C196.231 219.149 195.121 218.728 194 218C195.264 215.516 195.487 214.716 195 212L193 212M206 218C208.33 217.685 209.918 217.098 212 216C211.407 220.738 206.988 223.731 205 228C209.139 228 213.461 227.592 217.576 228.018C220.184 228.288 223.084 229.387 225.258 227.254C231.481 221.147 222.875 205.354 217 216C212.812 211.355 207.452 211.196 206 218M228 216C232.033 218.615 231 223.614 231 228L235 228L235 212C231.286 212.123 229.437 212.424 228 216M240.318 213.043C234.856 216.485 236.822 233.429 245.682 227.806C250.535 224.727 247.982 208.214 240.318 213.043z"/>
<path style="fill:#c0c0c0; stroke:none;" d="M83 216L84 217L83 216M156 216L157 217L156 216z"/>
<path style="fill:#000000; stroke:none;" d="M171 216C170.249 219.269 170.249 221.731 171 225L173 225C173.971 221.69 173.971 219.31 173 216L171 216M221 216C219.91 219.731 219.519 222.743 223 225L223 216L221 216M242 216L242 218C243.635 217.455 243.455 217.635 244 216L242 216M29 219C29.4057 221.092 29.2167 221.02 31 222C30.3087 220.612 30.0154 220.139 29 219M114 220C115.506 220.683 116.315 220.826 118 221C116.276 219.945 116.079 219.964 114 220z"/>
<path style="fill:#ababab; stroke:none;" d="M211 219L212 220L211 219M238 219L239 220L238 219z"/>
<path style="fill:#000000; stroke:none;" d="M80.6026 221.157C78.8698 222.314 80.6642 225.001 82.3974 223.843C84.1301 222.686 82.3358 219.999 80.6026 221.157z"/>
<path style="fill:#808080; stroke:none;" d="M99 220L100 221L99 220z"/>
<path style="fill:#000000; stroke:none;" d="M138 220L139 221L138 220M143.603 221.157C141.87 222.314 143.664 225.001 145.397 223.843C147.13 222.686 145.336 219.999 143.603 221.157M166 220L163 225L167 225C166.912 223.036 166.779 221.769 166 220z"/>
<path style="fill:#cdcdcd; stroke:none;" d="M247 220L248 221L247 220z"/>
<path style="fill:#c0c0c0; stroke:none;" d="M28 221L29 222L28 221z"/>
<path style="fill:#808080; stroke:none;" d="M138 221L139 222L138 221z"/>
<path style="fill:#fefefe; stroke:none;" d="M199 221L199 224L205 224L205 221L199 221z"/>
<path style="fill:#000000; stroke:none;" d="M215 221L212 225L216 225C215.826 223.315 215.683 222.506 215 221M192 222L192 225L194 225L194 222L192 222M241 222C241.899 224.124 241.876 224.101 244 225C243.518 222.636 243.364 222.482 241 222M115 224C116.248 224.685 116.548 224.749 118 225C116.752 224.315 116.452 224.251 115 224M120.667 224.333C120.222 224.778 121.278 224.722 121.333 224.667C121.778 224.222 120.722 224.278 120.667 224.333z"/>
<path style="fill:#ababab; stroke:none;" d="M121 226L122 227L121 226z"/>
<path style="fill:#cdcdcd; stroke:none;" d="M194 228L195 229L194 228z"/>
<path style="fill:#808080; stroke:none;" d="M42 230L43 231L42 230z"/>
</svg>
